HIERARCHY
ROOT pelvis
{
	OFFSET 0.003123 -0.351407 0.012037
	CHANNELS 6 Xposition Yposition Zposition Zrotation Yrotation Xrotation 
	JOINT left_hip
	{
		OFFSET 0.058189 -0.092763 -0.026001
		CHANNELS 3 Zrotation Yrotation Xrotation
		JOINT left_knee
		{
			OFFSET 0.054695 -0.378753 -0.009396
			CHANNELS 3 Zrotation Yrotation Xrotation
			JOINT left_ankle
			{
				OFFSET -0.043453 -0.403059 -0.031876
				CHANNELS 3 Zrotation Yrotation Xrotation
				JOINT left_foot
				{
					OFFSET 0.047257 -0.057997 0.118216
					CHANNELS 3 Zrotation Yrotation Xrotation
					End Site
					{
						OFFSET 0.000000 0.000000 0.000000
					}
				}
			}
		}
	}
	JOINT right_hip
	{
		OFFSET -0.063267 -0.103908 -0.021250
		CHANNELS 3 Zrotation Yrotation Xrotation
		JOINT right_knee
		{
			OFFSET -0.044210 -0.362380 -0.016824
			CHANNELS 3 Zrotation Yrotation Xrotation
			JOINT right_ankle
			{
				OFFSET 0.015417 -0.410728 -0.020192
				CHANNELS 3 Zrotation Yrotation Xrotation
				JOINT right_foot
				{
					OFFSET -0.038812 -0.058328 0.119049
					CHANNELS 3 Zrotation Yrotation Xrotation
					End Site
					{
						OFFSET 0.000000 0.000000 0.000000
					}
				}
			}
		}
	}
	JOINT spine_1
	{
		OFFSET -0.002763 0.109891 -0.027618
		CHANNELS 3 Zrotation Yrotation Xrotation
		JOINT spine_2
		{
			OFFSET 0.009448 0.131853 -0.005940
			CHANNELS 3 Zrotation Yrotation Xrotation
			JOINT spine_3
			{
				OFFSET -0.011330 0.052235 0.028447
				CHANNELS 3 Zrotation Yrotation Xrotation
				JOINT neck
				{
					OFFSET -0.012164 0.165167 -0.031615
					CHANNELS 3 Zrotation Yrotation Xrotation
					JOINT head
					{
						OFFSET 0.024783 0.160452 0.020737
						CHANNELS 3 Zrotation Yrotation Xrotation
						End Site
						{
							OFFSET 0.000000 0.000000 0.000000
						}
					}
				}
				JOINT left_collar
				{
					OFFSET 0.046364 0.084944 -0.007220
					CHANNELS 3 Zrotation Yrotation Xrotation
					JOINT left_shoulder
					{
						OFFSET 0.119239 0.057728 -0.015461
						CHANNELS 3 Zrotation Yrotation Xrotation
						JOINT left_elbow
						{
							OFFSET 0.254123 -0.072151 -0.042459
							CHANNELS 3 Zrotation Yrotation Xrotation
							JOINT left_wrist
							{
								OFFSET 0.251987 0.023221 -0.002472
								CHANNELS 3 Zrotation Yrotation Xrotation
								JOINT left_index_1
								{
									OFFSET 0.101902 -0.008688 0.019351
									CHANNELS 3 Zrotation Yrotation Xrotation
									JOINT left_index_2
									{
										OFFSET 0.030149 -0.011154 0.001151
										CHANNELS 3 Zrotation Yrotation Xrotation
										JOINT left_index_3
										{
											OFFSET 0.006504 -0.021577 -0.002433
											CHANNELS 3 Zrotation Yrotation Xrotation
											End Site
											{
												OFFSET 0.000000 0.000000 0.000000
											}
										}
									}
								}
								JOINT left_middle_1
								{
									OFFSET 0.109398 -0.006328 -0.003981
									CHANNELS 3 Zrotation Yrotation Xrotation
									JOINT left_middle_2
									{
										OFFSET 0.026472 -0.015218 -0.004641
										CHANNELS 3 Zrotation Yrotation Xrotation
										JOINT left_middle_3
										{
											OFFSET 0.005022 -0.023347 -0.001911
											CHANNELS 3 Zrotation Yrotation Xrotation
											End Site
											{
												OFFSET 0.000000 0.000000 0.000000
											}
										}
									}
								}
								JOINT left_pinky_1
								{
									OFFSET 0.084047 -0.014539 -0.043750
									CHANNELS 3 Zrotation Yrotation Xrotation
									JOINT left_pinky_2
									{
										OFFSET 0.012124 -0.014448 -0.005375
										CHANNELS 3 Zrotation Yrotation Xrotation
										JOINT left_pinky_3
										{
											OFFSET 0.003798 -0.018853 0.000167
											CHANNELS 3 Zrotation Yrotation Xrotation
											End Site
											{
												OFFSET 0.000000 0.000000 0.000000
											}
										}
									}
								}
								JOINT left_ring_1
								{
									OFFSET 0.097444 -0.009268 -0.027345
									CHANNELS 3 Zrotation Yrotation Xrotation
									JOINT left_ring_2
									{
										OFFSET 0.023561 -0.016057 -0.001895
										CHANNELS 3 Zrotation Yrotation Xrotation
										JOINT left_ring_3
										{
											OFFSET 0.004257 -0.023548 0.000814
											CHANNELS 3 Zrotation Yrotation Xrotation
											End Site
											{
												OFFSET 0.000000 0.000000 0.000000
											}
										}
									}
								}
								JOINT left_thumb_1
								{
									OFFSET 0.040636 -0.017977 0.025611
									CHANNELS 3 Zrotation Yrotation Xrotation
									JOINT left_thumb_2
									{
										OFFSET 0.021637 -0.017639 0.011623
										CHANNELS 3 Zrotation Yrotation Xrotation
										JOINT left_thumb_3
										{
											OFFSET 0.024002 -0.008356 0.006548
											CHANNELS 3 Zrotation Yrotation Xrotation
											End Site
											{
												OFFSET 0.000000 0.000000 0.000000
											}
										}
									}
								}
							}
						}
					}
				}
				JOINT right_collar
				{
					OFFSET -0.047695 0.084339 -0.013400
					CHANNELS 3 Zrotation Yrotation Xrotation
					JOINT right_shoulder
					{
						OFFSET -0.102578 0.053524 -0.012669
						CHANNELS 3 Zrotation Yrotation Xrotation
						JOINT right_elbow
						{
							OFFSET -0.271150 -0.036492 -0.026467
							CHANNELS 3 Zrotation Yrotation Xrotation
							JOINT right_wrist
							{
								OFFSET -0.249267 -0.004533 -0.015325
								CHANNELS 3 Zrotation Yrotation Xrotation
								JOINT right_index_1
								{
									OFFSET -0.099881 -0.011783 0.019600
									CHANNELS 3 Zrotation Yrotation Xrotation
									JOINT right_index_2
									{
										OFFSET -0.030148 -0.011154 0.001151
										CHANNELS 3 Zrotation Yrotation Xrotation
										JOINT right_index_3
										{
											OFFSET -0.006505 -0.021577 -0.002432
											CHANNELS 3 Zrotation Yrotation Xrotation
											End Site
											{
												OFFSET 0.000000 0.000000 0.000000
											}
										}
									}
								}
								JOINT right_middle_1
								{
									OFFSET -0.107376 -0.009422 -0.003734
									CHANNELS 3 Zrotation Yrotation Xrotation
									JOINT right_middle_2
									{
										OFFSET -0.026472 -0.015218 -0.004641
										CHANNELS 3 Zrotation Yrotation Xrotation
										JOINT right_middle_3
										{
											OFFSET -0.005022 -0.023347 -0.001911
											CHANNELS 3 Zrotation Yrotation Xrotation
											End Site
											{
												OFFSET 0.000000 0.000000 0.000000
											}
										}
									}
								}
								JOINT right_pinky_1
								{
									OFFSET -0.082027 -0.017634 -0.043503
									CHANNELS 3 Zrotation Yrotation Xrotation
									JOINT right_pinky_2
									{
										OFFSET -0.012123 -0.014448 -0.005374
										CHANNELS 3 Zrotation Yrotation Xrotation
										JOINT right_pinky_3
										{
											OFFSET -0.003798 -0.018852 0.000167
											CHANNELS 3 Zrotation Yrotation Xrotation
											End Site
											{
												OFFSET 0.000000 0.000000 0.000000
											}
										}
									}
								}
								JOINT right_ring_1
								{
									OFFSET -0.095423 -0.012362 -0.027099
									CHANNELS 3 Zrotation Yrotation Xrotation
									JOINT right_ring_2
									{
										OFFSET -0.023561 -0.016057 -0.001895
										CHANNELS 3 Zrotation Yrotation Xrotation
										JOINT right_ring_3
										{
											OFFSET -0.004257 -0.023548 0.000816
											CHANNELS 3 Zrotation Yrotation Xrotation
											End Site
											{
												OFFSET 0.000000 0.000000 0.000000
											}
										}
									}
								}
								JOINT right_thumb_1
								{
									OFFSET -0.038613 -0.021074 0.025861
									CHANNELS 3 Zrotation Yrotation Xrotation
									JOINT right_thumb_2
									{
										OFFSET -0.021636 -0.017639 0.011623
										CHANNELS 3 Zrotation Yrotation Xrotation
										JOINT right_thumb_3
										{
											OFFSET -0.024004 -0.008353 0.006547
											CHANNELS 3 Zrotation Yrotation Xrotation
											End Site
											{
												OFFSET 0.000000 0.000000 0.000000
											}
										}
									}
								}
							}
						}
					}
				}
			}
		}
	}
}
MOTION
Frames: 7
Frame Time: 0.050000
0.022876 0.954317 -0.040329 0.445260 -2.010646 -7.484559 -3.960300 1.036303 5.495383 1.084310 -0.840377 6.379170 -7.322611 -6.634813 8.880386 0.000000 0.000000 0.000000 -1.857375 -1.096774 11.487868 4.039712 -0.187630 -6.169490 2.974062 10.415898 -4.645714 0.000000 0.000000 0.000000 -0.717711 0.327626 -5.454591 -5.953874 1.039962 -7.904590 10.679552 -3.082299 25.602601 1.825073 -0.904857 3.350305 0.000000 0.000000 0.000000 -1.265341 -5.023230 2.484925 -56.223469 -13.492873 -6.405441 -29.855685 -19.667437 7.194460 -3.487179 -1.009381 -8.843331 -13.961703 3.599297 1.506809 -15.623748 -1.924059 -6.359227 0.000000 0.000000 0.000000 -17.468884 -0.553024 -2.543392 -20.486905 -4.080837 -10.276259 0.000000 0.000000 0.000000 0.863357 -4.030272 -5.732552 -35.334735 -7.462592 -10.691410 0.000000 0.000000 0.000000 -17.357355 0.437971 -0.191167 -23.181537 -10.294457 -16.687627 0.000000 0.000000 0.000000 15.327829 10.395978 -0.405826 -9.846934 2.831052 3.221985 0.000000 0.000000 0.000000 -0.641606 8.124235 4.235097 48.116699 13.529769 -2.811517 25.573846 20.754700 2.784879 10.588073 5.344606 -1.044522 12.553299 -2.210868 1.047794 -15.155771 0.993504 3.362311 0.000000 0.000000 0.000000 16.405386 2.854792 -3.926256 -9.237486 1.244500 -3.185665 0.000000 0.000000 0.000000 -6.218833 7.301448 -7.409204 2.485172 -1.174476 5.000917 0.000000 0.000000 0.000000 14.179255 -0.135200 -0.993091 -8.801649 0.469145 -6.226284 0.000000 0.000000 0.000000 -12.328247 -21.277049 16.774937 8.041807 12.563372 -1.216158 0.000000 0.000000 0.000000 
0.025820 0.964954 -0.021851 1.358666 2.058013 -10.207397 -5.693181 1.033453 5.037356 5.551002 -1.705640 7.880510 -4.610504 -16.722898 -5.870966 0.000000 0.000000 0.000000 1.029069 -1.499086 11.135348 -2.798832 0.306124 2.377608 0.214175 6.164671 -7.591016 0.000000 0.000000 0.000000 -5.400464 -0.357532 -1.403045 -5.150944 0.676209 -8.438862 13.480435 -1.336666 27.769179 2.176054 -1.064334 3.790391 0.000000 0.000000 0.000000 -2.287062 -8.617439 4.193231 -54.563101 -24.375635 -5.211392 -29.269836 -13.046301 4.555171 -11.441011 -6.416709 -11.321227 -39.673017 24.808720 1.642819 -44.919849 -12.349272 -18.303302 0.000000 0.000000 0.000000 -66.238175 13.195135 -6.210438 13.272314 -6.503094 -42.643825 0.000000 0.000000 0.000000 -56.810632 -15.451789 -19.479170 17.985652 -0.253823 -0.528096 0.000000 0.000000 0.000000 -66.502862 -2.864127 -0.328019 17.061357 -2.312770 -29.080329 0.000000 0.000000 0.000000 -18.308422 -13.056504 5.631727 72.234588 30.073568 32.465226 0.000000 0.000000 0.000000 2.528142 9.261741 4.837071 43.988195 16.481203 -1.331863 25.453743 19.692554 2.646353 15.387002 5.108832 -6.467477 18.553040 -10.758384 3.171428 -9.064156 -0.527543 5.861433 0.000000 0.000000 0.000000 26.999872 -0.891390 -3.354067 -9.888808 0.330781 2.034029 0.000000 0.000000 0.000000 -0.246668 8.933104 -12.572358 -7.467378 -2.723833 15.316333 0.000000 0.000000 0.000000 22.738950 3.024403 -2.438513 -7.987672 -0.937062 3.385350 0.000000 0.000000 0.000000 -17.075959 -28.511453 24.230212 8.497961 14.182891 -1.863627 0.000000 0.000000 0.000000 
0.030767 0.954639 -0.000732 2.051460 2.819905 -10.430721 -5.717895 1.209949 5.931295 5.841479 -1.576052 6.864973 -2.833226 -20.975849 -11.943852 0.000000 0.000000 0.000000 1.166296 -1.270064 9.282109 -4.526991 0.929564 8.845467 -2.038611 4.607156 -12.701366 0.000000 0.000000 0.000000 -3.523107 -0.399402 4.513930 -5.674730 0.146635 -11.594458 10.295998 -0.483321 29.982352 3.390608 -1.032831 2.082942 0.000000 0.000000 0.000000 -2.141828 -10.907945 5.309409 -51.585535 -28.966612 -4.863936 -30.787568 -16.476014 6.091703 -10.260234 -3.618432 -14.374016 -126.270391 61.457177 -60.172369 -67.957385 -39.603664 -50.515624 0.000000 0.000000 0.000000 -101.924611 28.869430 -18.056762 21.742168 -3.780385 -83.759941 0.000000 0.000000 0.000000 -99.280278 -2.416187 -15.896667 40.128923 2.412109 -23.915504 0.000000 0.000000 0.000000 -100.516915 1.231067 -0.184135 44.438543 12.485068 -57.156754 0.000000 0.000000 0.000000 -32.642180 -53.200364 10.818302 120.275429 39.068729 74.744288 0.000000 0.000000 0.000000 0.300073 9.655248 4.997969 48.008661 21.790649 0.663414 25.538406 18.483468 2.496442 12.175825 8.822675 -6.643688 22.016810 -14.552752 3.618832 3.973550 2.080736 -6.507896 0.000000 0.000000 0.000000 30.969565 0.625982 -4.184007 1.292655 1.365910 -4.589191 0.000000 0.000000 0.000000 2.659091 16.417395 -23.405501 9.273680 -1.293296 3.295101 0.000000 0.000000 0.000000 26.069254 10.994025 -5.866250 3.425941 0.271970 -0.067869 0.000000 0.000000 0.000000 -11.101170 -27.400439 22.573232 0.821124 9.703400 -3.471165 0.000000 0.000000 0.000000 
0.035831 0.950127 -0.012611 1.608982 2.417370 -8.816918 -3.615560 1.166051 6.363861 2.713613 -0.432848 1.698277 -4.352626 -21.877620 -9.826652 0.000000 0.000000 0.000000 0.360037 -1.297588 10.130289 -3.052952 0.354079 2.817314 -1.278212 5.614975 -11.401673 0.000000 0.000000 0.000000 0.084205 -0.025772 0.583623 -6.002358 0.367016 -11.218482 7.753284 -0.776388 30.405378 4.506049 -1.910611 5.304077 0.000000 0.000000 0.000000 -3.747778 -8.560525 4.129654 -50.827280 -26.909529 -5.192109 -31.018894 -15.492217 5.742725 -8.800798 -6.562398 -11.005603 -18.748861 15.831357 3.354634 -70.165496 -6.392044 -9.258506 0.000000 0.000000 0.000000 -61.875214 21.123718 -5.086187 -14.537529 -22.639244 -55.162081 0.000000 0.000000 0.000000 -78.429007 -5.192577 -15.176875 33.253004 -0.259396 -18.859873 0.000000 0.000000 0.000000 -70.194738 1.688389 -0.042329 9.796181 -10.860276 -54.279039 0.000000 0.000000 0.000000 -2.895163 -11.220215 -4.616531 37.898169 29.574081 21.481282 0.000000 0.000000 0.000000 -0.735711 9.395204 4.846984 50.162724 22.678881 1.073093 23.909582 17.738599 2.112134 3.552169 7.683447 -9.940739 17.118065 -0.826040 1.109565 -2.713173 1.722904 -6.552001 0.000000 0.000000 0.000000 23.436875 8.728613 -5.811317 -0.998034 0.981903 -4.049599 0.000000 0.000000 0.000000 2.594973 14.786679 -20.461869 4.581562 -0.859540 2.692956 0.000000 0.000000 0.000000 20.605458 11.746631 -6.141593 -1.038688 0.483726 -2.229478 0.000000 0.000000 0.000000 -3.570823 -16.019282 11.213378 5.555713 3.983331 -0.013001 0.000000 0.000000 0.000000 
0.035478 0.940618 -0.006012 0.908996 1.298626 -9.610075 -2.375031 0.972423 5.714161 1.664465 -0.799282 5.371778 -1.751821 -20.645337 -13.898790 0.000000 0.000000 0.000000 -1.349188 -1.006733 9.449008 1.199149 0.098894 6.284026 -2.125187 6.861991 -14.857278 0.000000 0.000000 0.000000 0.735231 -0.072121 1.703999 -7.185162 0.143925 -13.768249 8.997283 -0.578812 31.882256 3.004382 -1.369821 4.373365 0.000000 0.000000 0.000000 -2.446033 -12.448506 6.151395 -53.887151 -23.537740 -5.604589 -27.220505 -19.364489 6.588501 -3.157881 -7.566429 -11.498193 -20.940077 7.225249 2.109767 -32.210672 2.285517 2.687379 0.000000 0.000000 0.000000 -34.902056 6.914855 -1.965827 -28.577234 -6.005218 -12.654474 0.000000 0.000000 0.000000 -40.817276 -4.856395 -11.596136 -7.864414 -6.611470 -17.743257 0.000000 0.000000 0.000000 -41.137518 -4.045983 -1.227151 -25.366264 -13.772738 -20.221115 0.000000 0.000000 0.000000 1.941750 7.881927 4.281259 9.185702 8.182513 2.785190 0.000000 0.000000 0.000000 -0.576434 7.449639 3.853029 54.623506 19.973373 0.401743 19.508598 19.560950 1.976284 4.466130 7.114938 -5.084000 15.767302 0.877622 0.579734 -3.947678 3.372781 -12.333637 0.000000 0.000000 0.000000 20.004875 11.010842 -6.985922 4.167534 2.598337 -10.302233 0.000000 0.000000 0.000000 -3.478170 17.576278 -24.060229 13.389324 -0.592597 1.673496 0.000000 0.000000 0.000000 17.972688 12.677897 -7.222329 2.271250 3.409297 -12.963528 0.000000 0.000000 0.000000 -3.909436 -11.066830 7.134815 4.740039 0.308905 1.085489 0.000000 0.000000 0.000000 
0.041014 0.940295 -0.008652 -0.191469 0.712050 -10.579278 -1.790971 1.585898 9.804619 2.433144 -0.154990 -0.317324 -2.857970 -21.027756 -12.149564 0.000000 0.000000 0.000000 -0.642413 -1.204153 10.482061 1.253133 0.087066 5.922726 -1.798599 7.548312 -14.437871 0.000000 0.000000 0.000000 1.533746 -0.149480 3.147006 -7.398547 0.567174 -12.466965 9.144673 -0.399377 30.867835 2.490561 -1.201511 4.118725 0.000000 0.000000 0.000000 -3.098062 -11.298924 5.578893 -52.115622 -25.767837 -5.206665 -28.432395 -18.272800 6.394603 -4.154889 -7.539937 -3.899007 -19.584952 10.176906 2.753572 -20.389696 1.701800 -0.089754 0.000000 0.000000 0.000000 -27.144491 4.240795 -2.430516 -32.891761 -2.784380 -8.723715 0.000000 0.000000 0.000000 -24.945300 -16.534170 -22.459769 -30.218517 -1.477552 -3.280712 0.000000 0.000000 0.000000 -30.900133 -6.088540 -3.630643 -34.593654 -11.164420 -15.500839 0.000000 0.000000 0.000000 4.262573 11.575266 7.493160 2.705432 0.618138 -0.426412 0.000000 0.000000 0.000000 0.698554 4.773765 2.450254 56.894020 22.225955 1.418385 17.197996 16.657954 1.276344 0.629344 4.724157 -4.700696 21.153609 -0.141445 1.113172 10.449489 1.228621 -5.694144 0.000000 0.000000 0.000000 28.402327 3.528096 -4.764353 17.024061 1.422760 -6.218395 0.000000 0.000000 0.000000 9.132603 11.187956 -15.799110 26.347677 1.813611 -3.481734 0.000000 0.000000 0.000000 27.871452 7.705836 -4.086525 18.732669 3.334482 -5.666860 0.000000 0.000000 0.000000 1.261116 -10.096771 8.462479 -3.093019 -2.847801 0.447984 0.000000 0.000000 0.000000 
0.038187 0.935460 -0.002052 -0.349311 -0.405869 -10.844952 -2.125358 1.820876 10.976127 3.653143 -0.169189 -0.965247 -1.789329 -20.046751 -13.670960 0.000000 0.000000 0.000000 -0.741747 -1.287997 11.483157 1.803329 0.023132 5.376676 -1.958220 8.773341 -15.705729 0.000000 0.000000 0.000000 1.034503 -0.169530 3.027542 -6.990264 0.499496 -11.891930 8.788602 -0.703368 30.144437 2.985055 -1.301487 4.040712 0.000000 0.000000 0.000000 -4.163112 -10.860065 5.431144 -51.315357 -23.867284 -5.387060 -29.259896 -20.416962 7.380320 -0.698087 -7.050277 -2.447012 -18.717776 6.317980 2.019190 -18.899441 1.031959 -1.749447 0.000000 0.000000 0.000000 -26.042502 -1.198932 -4.035462 -21.420776 -0.292710 -4.176608 0.000000 0.000000 0.000000 -17.746296 -16.654370 -22.061965 -25.283592 -1.391058 -2.893046 0.000000 0.000000 0.000000 -28.380664 -7.364749 -4.170122 -23.879919 -7.955128 -15.347511 0.000000 0.000000 0.000000 0.889209 13.682264 11.012593 4.123772 -0.733083 -1.370781 0.000000 0.000000 0.000000 0.479670 6.148110 3.168147 57.133499 19.882012 0.213366 16.458558 19.038619 1.532228 1.074540 4.855913 -4.087054 18.510779 1.445600 0.651497 3.607912 1.799975 -6.761171 0.000000 0.000000 0.000000 21.253991 6.836733 -5.440693 13.325532 1.466790 -6.487323 0.000000 0.000000 0.000000 -2.379471 14.906423 -19.488669 20.714952 2.180862 -4.571158 0.000000 0.000000 0.000000 19.752115 9.495176 -5.432973 15.858068 3.459353 -7.089192 0.000000 0.000000 0.000000 -1.887482 -13.802920 10.571178 1.802632 2.256369 -0.341794 0.000000 0.000000 0.000000 
